<svg xmlns="http://www.w3.org/2000/svg" width="1200" height="800" viewBox="0 0 1200 800" fill="none">
<rect x="0" y="0" width="1200" height="800" fill="#FFFFFF"/>
<g transform="translate(368,48)">
<g id="helm">
<circle cx="231.5" cy="166.68" r="101.86" stroke="#FFFFFF" stroke-width="28" />
<circle cx="231.5" cy="166.68" r="69.45" stroke="#FFFFFF" stroke-width="9" opacity="0.55" />
<line x1="231.50" y1="142.68" x2="231.50" y2="87.22" stroke="#FFFFFF" stroke-width="28" stroke-linecap="round" />
<line x1="248.47" y1="149.71" x2="287.69" y2="110.49" stroke="#FFFFFF" stroke-width="28" stroke-linecap="round" />
<line x1="255.50" y1="166.68" x2="310.96" y2="166.68" stroke="#FFFFFF" stroke-width="28" stroke-linecap="round" />
<line x1="248.47" y1="183.65" x2="287.69" y2="222.87" stroke="#FFFFFF" stroke-width="28" stroke-linecap="round" />
<line x1="231.50" y1="190.68" x2="231.50" y2="246.14" stroke="#FFFFFF" stroke-width="28" stroke-linecap="round" />
<line x1="214.53" y1="183.65" x2="175.31" y2="222.87" stroke="#FFFFFF" stroke-width="28" stroke-linecap="round" />
<line x1="207.50" y1="166.68" x2="152.04" y2="166.68" stroke="#FFFFFF" stroke-width="28" stroke-linecap="round" />
<line x1="214.53" y1="149.71" x2="175.31" y2="110.49" stroke="#FFFFFF" stroke-width="28" stroke-linecap="round" />
<circle cx="231.5" cy="166.68" r="24" fill="#FFFFFF" />
</g>
<g id="ship">
<path d="M 129.64 240.76000000000002 Q 231.5 200.76000000000002 333.36 240.76000000000002 L 314.84000000000003 313.36 Q 231.5 353.36 148.16 313.36 Z" fill="#1E5AA8" stroke="#FFFFFF" stroke-width="22" stroke-linejoin="round" />
<path d="M 129.64 240.76000000000002 Q 231.5 200.76000000000002 333.36 240.76000000000002 L 314.84000000000003 313.36 Q 231.5 353.36 148.16 313.36 Z" fill="none" stroke="#FFFFFF" stroke-width="11" opacity="0.35" />
<path d="M 231.5 240.76000000000002 L 314.84000000000003 313.36 Q 231.5 353.36 231.5 240.76000000000002 Z" fill="#0F3E7A" opacity="0.7"/>
<path d="M 231.5 235.76000000000002 L 231.5 311.36" stroke="#FFFFFF" stroke-width="11" stroke-linecap="round" opacity="0.75" />
<path d="M 147.64 258.76 Q 231.5 230.76000000000002 315.36 258.76" stroke="#FFFFFF" stroke-width="11" stroke-linecap="round" opacity="0.55" />
</g>
<g id="waves">
<path d="M 138.89999999999998 351.36 C 185.2 341.36 277.8 361.36 324.1 351.36" stroke="#2A78D4" stroke-width="16" stroke-linecap="round" fill="none" opacity="0.63"/>
<path d="M 138.89999999999998 371.36 C 185.2 357.36 277.8 385.36 324.1 371.36" stroke="#2A78D4" stroke-width="16" stroke-linecap="round" fill="none" opacity="0.52"/>
<path d="M 138.89999999999998 391.36 C 185.2 382.36 277.8 400.36 324.1 391.36" stroke="#2A78D4" stroke-width="16" stroke-linecap="round" fill="none" opacity="0.42"/>
</g>

</g>
<text x="600.0" y="624" text-anchor="middle"
      font-family="Inter, system-ui, -apple-system, Segoe UI, Roboto, Helvetica, Arial, sans-serif"
      font-weight="800" font-size="80" letter-spacing="6" fill="#0B1B2B">SKAPHOS</text>
<text x="600.0" y="704" text-anchor="middle"
      font-family="Inter, system-ui, -apple-system, Segoe UI, Roboto, Helvetica, Arial, sans-serif"
      font-weight="500" font-size="28" letter-spacing="1.2" fill="#0F3E7A" opacity="0.9">Navigate your infrastructure</text>
</svg>
