<svg xmlns="http://www.w3.org/2000/svg" width="256" height="256" viewBox="0 0 256 256" fill="none">
<rect x="0" y="0" width="256" height="256" rx="46" fill="#0B1B2B"/>
<g transform="translate(0,-5)">
<circle cx="128.0" cy="102.4" r="71.68" stroke="#FFFFFF" stroke-width="17" />
<circle cx="128.0" cy="102.4" r="48.64" stroke="#FFFFFF" stroke-width="6" opacity="0.55" />
<line x1="128.00" y1="87.40" x2="128.00" y2="44.32" stroke="#FFFFFF" stroke-width="17" stroke-linecap="round" />
<line x1="138.61" y1="91.79" x2="169.07" y2="61.33" stroke="#FFFFFF" stroke-width="17" stroke-linecap="round" />
<line x1="143.00" y1="102.40" x2="186.08" y2="102.40" stroke="#FFFFFF" stroke-width="17" stroke-linecap="round" />
<line x1="138.61" y1="113.01" x2="169.07" y2="143.47" stroke="#FFFFFF" stroke-width="17" stroke-linecap="round" />
<line x1="128.00" y1="117.40" x2="128.00" y2="160.48" stroke="#FFFFFF" stroke-width="17" stroke-linecap="round" />
<line x1="117.39" y1="113.01" x2="86.93" y2="143.47" stroke="#FFFFFF" stroke-width="17" stroke-linecap="round" />
<line x1="113.00" y1="102.40" x2="69.92" y2="102.40" stroke="#FFFFFF" stroke-width="17" stroke-linecap="round" />
<line x1="117.39" y1="91.79" x2="86.93" y2="61.33" stroke="#FFFFFF" stroke-width="17" stroke-linecap="round" />
<circle cx="128.0" cy="102.4" r="15" fill="#FFFFFF" />
<path d="M 71.68 148.48 Q 128.0 108.47999999999999 184.32 148.48 L 174.07999999999998 195.04 Q 128.0 235.04 81.92 195.04 Z" fill="#1E5AA8" stroke="#FFFFFF" stroke-width="15" stroke-linejoin="round" />
<path d="M 71.68 148.48 Q 128.0 108.47999999999999 184.32 148.48 L 174.07999999999998 195.04 Q 128.0 235.04 81.92 195.04 Z" fill="none" stroke="#FFFFFF" stroke-width="8" opacity="0.35" />
<path d="M 128.0 148.48 L 174.07999999999998 195.04 Q 128.0 235.04 128.0 148.48 Z" fill="#0F3E7A" opacity="0.7"/>
<path d="M 128.0 143.48 L 128.0 193.04" stroke="#FFFFFF" stroke-width="10" stroke-linecap="round" opacity="0.75" />
<path d="M 89.68 166.48 Q 128.0 138.48 166.32 166.48" stroke="#FFFFFF" stroke-width="10" stroke-linecap="round" opacity="0.55" />
</g>
</svg>
